<?xml version="1.0" encoding="UTF-8"?>
<svg width="23px" height="13px" viewBox="0 0 23 13" version="1.1" xmlns="http://www.w3.org/2000/svg" xmlns:xlink="http://www.w3.org/1999/xlink">
    <!-- Generator: Sketch 52 (66869) - http://www.bohemiancoding.com/sketch -->
    <title>teste</title>
    <desc>Created with Sketch.</desc>
    <g id="Page-1" stroke="none" stroke-width="1" fill="none" fill-rule="evenodd">
        <g id="index" transform="translate(-828.000000, -1294.000000)" fill="#FFFFFF">
            <g id="empreendimentos" transform="translate(4.000000, 766.000000)">
                <g id="teste" transform="translate(824.000000, 528.000000)">
                    <path d="M22.9615599,10.9692333 C22.843132,10.580878 22.5472577,10.2820234 22.073408,10.0728321 C22.0437952,9.62444578 21.95498,8.78793628 21.8366671,7.56218895 C21.8070544,7.23351626 21.5702906,6.9643869 21.3627944,6.72551689 C21.2739331,6.63583032 21.1554592,6.48657721 21.1260535,6.42670875 C20.5040941,4.39468805 19.5270118,2.33212932 16.595167,0.926799859 C16.3878318,0.807271961 14.8774673,0 12.6566042,0 C11.1167879,0 9.60633136,0.388355359 8.18482803,1.16573954 C8.12583265,1.19562732 6.37815206,2.18190084 5.43109675,4.24434345 C5.40148401,4.30388679 5.19435593,4.45360436 5.04631526,4.57301615 C4.72066721,4.81195583 4.36542943,5.08115485 4.24688645,5.499816 L4.27649919,5.55935934 L4.27649919,5.61890267 C4.24688645,6.93431334 3.83223913,9.74343955 2.76622668,10.0721355 C2.76622668,10.0721355 1.61121496,10.4907502 1.19665967,10.6102084 C0.959918855,10.699895 0.160674121,10.9985638 0.0117821161,11.6558162 C-0.0178306192,11.835259 -0.0178306192,12.1938892 0.337430168,12.5223761 C0.633488493,12.8510488 1.25570107,12.9107314 1.75900253,12.9107314 C2.26230398,12.9107314 2.88398735,12.8511881 3.62469689,12.7613158 C3.65430962,12.7613158 6.40852409,12.2830416 9.66567188,12.2830416 C11.2054881,12.2830416 12.6273596,12.4025695 13.8706573,12.5818498 C13.9595185,12.6117375 16.269611,13 18.5496995,13 C18.5496995,13 18.5496995,13 18.5496995,13 C20.5632045,13 21.8957085,12.7011919 22.6660538,12.0433124 L22.7250492,11.983769 C22.7840446,11.9538812 23.1098307,11.5054949 22.96179,10.9676077 L22.9615599,10.9692333 Z M21.954842,11.3283279 C21.5400796,11.6570006 20.6223609,11.9858591 18.5789671,11.9858591 C16.3877628,11.9858591 14.107191,11.5677088 14.0779924,11.5677088 C12.774687,11.3584479 11.2941652,11.2390361 9.6955147,11.2390361 C6.34950571,11.2390361 3.59536026,11.7173103 3.50670613,11.7173103 C2.8258203,11.8069969 2.23363462,11.866726 1.78900642,11.866726 C1.43353855,11.866726 1.25588514,11.8368382 1.16704694,11.8071826 C1.25590815,11.7476393 1.4334235,11.657767 1.55182842,11.5979217 C1.96613061,11.4485061 3.12139543,11.0598488 3.15087011,11.0598488 C5.07599702,10.4620468 5.34207447,6.5770069 5.37173322,5.73928981 C5.4307286,5.64960325 5.66779155,5.47043913 5.78603541,5.38052033 C6.05241197,5.17125943 6.34863136,4.96237009 6.46692124,4.6633065 C7.26635004,2.92965269 8.7472169,2.0928413 8.77659954,2.06318574 C10.0496711,1.37597581 11.3824512,1.01757789 12.744499,1.01757789 C14.7580039,1.01757789 16.1796453,1.7949853 16.1796453,1.82443184 L16.209258,1.85431962 C18.6375484,3.02005916 19.555267,4.63362773 20.2068163,6.72609746 C20.2956775,6.99494814 20.4731928,7.20437161 20.6510763,7.4133074 C20.7100717,7.50299396 20.8288678,7.6225683 20.8584115,7.68215808 C21.0362029,9.47558745 21.0951523,10.4614662 21.0951523,10.4614662 L21.124765,10.8202357 L21.4504131,10.9397636 C21.9242859,11.0891792 21.9835343,11.2684362 21.9835343,11.2684362 C21.9539216,11.2684362 21.9539216,11.298324 21.9539216,11.3279796 L21.954842,11.3283279 Z" id="Shape" fill-rule="nonzero"></path>
                    <path d="M13,5.5 C13,5.77613548 12.7761885,6 12.5,6 C12.2238115,6 12,5.77618846 12,5.5 C12,5.22386452 12.2238115,5 12.5,5 C12.7761885,5 13,5.22381154 13,5.5 Z" id="Path"></path>
                    <path d="M11,5.5 C11,5.77613548 10.7761885,6 10.5,6 C10.2238115,6 10,5.77618846 10,5.5 C10,5.22386452 10.2238115,5 10.5,5 C10.7761885,5 11,5.22381154 11,5.5 Z" id="Path"></path>
                    <path d="M16,5.5 C16,5.77613548 15.7761885,6 15.5,6 C15.2238115,6 15,5.77618846 15,5.5 C15,5.22386452 15.2238115,5 15.5,5 C15.7761885,5 16,5.22381154 16,5.5 Z" id="Path"></path>
                    <path d="M14.1423728,2.2272043 C10.0894778,1.16279726 8.07725645,4.18217334 8.07725645,4.21099484 C7.93556809,4.44087423 7.9922082,4.75728515 8.21894481,4.90101283 C8.44568143,5.04474051 8.75740023,4.98729859 8.89906657,4.7572628 C8.9555305,4.67097704 10.5430612,2.31288682 13.915482,3.20456594 L13.9438241,3.20456594 C13.9721662,3.20456594 16.494677,3.75085624 18.081525,6.74134379 C18.1665733,6.91398235 18.3364716,7 18.5067222,7 C18.5917705,7 18.6768848,6.97124553 18.7333047,6.94271448 C18.9882513,6.79896445 19.0735197,6.51133035 18.9317433,6.25269649 C17.2025903,2.94582036 14.4250888,2.28455685 14.1417562,2.22718195 L14.1423728,2.2272043 Z" id="Path"></path>
                </g>
            </g>
        </g>
    </g>
</svg>