<?xml version="1.0" encoding="UTF-8"?>
<svg width="17px" height="13px" viewBox="0 0 17 13" version="1.1" xmlns="http://www.w3.org/2000/svg" xmlns:xlink="http://www.w3.org/1999/xlink">
    <!-- Generator: Sketch 52 (66869) - http://www.bohemiancoding.com/sketch -->
    <title>bed</title>
    <desc>Created with Sketch.</desc>
    <g id="Page-1" stroke="none" stroke-width="1" fill="none" fill-rule="evenodd">
        <g id="Empreendimentos" transform="translate(-1179.000000, -396.000000)" fill="#FFFFFF" fill-rule="nonzero">
            <g id="bed" transform="translate(1179.000000, 396.000000)">
                <path d="M15.5832918,5.00990535 L15.5832918,1.77630305 C15.5832918,0.797209794 14.7885434,0 13.812473,0 L3.18749377,0 C2.21142342,0 1.41667497,0.797209794 1.41667497,1.77630305 L1.41667497,5.00990535 C0.609873809,5.1747362 0,5.89237822 0,6.74997159 L0,8.88154858 L0,10.302611 L0,11.7236734 C0,11.9197785 0.158677424,12.0789474 0.354177043,12.0789474 C0.549676661,12.0789474 0.708354085,11.9197785 0.708354085,11.7236734 L0.708354085,10.6578849 L16.2916459,10.6578849 L16.2916459,11.7236734 C16.2916459,11.9197785 16.4503233,12.0789474 16.645823,12.0789474 C16.8413226,12.0789474 17,11.9197785 17,11.7236734 L17,10.302611 L17,8.88154858 L17,6.74997159 C16.9999668,5.89237822 16.390093,5.1747362 15.5832918,5.00990535 Z M2.12499585,1.77630305 C2.12499585,1.18868723 2.60169218,0.710514561 3.18749377,0.710514561 L13.812473,0.710514561 C14.3982746,0.710514561 14.8749709,1.18868723 14.8749709,1.77630305 L14.8749709,4.97366854 L13.9002951,4.97366854 C13.9697227,4.77826288 13.9874199,4.56723676 13.9357228,4.35977436 L13.5815457,2.93871194 C13.4632432,2.46337027 13.0389745,2.13154368 12.5509228,2.13154368 L10.2708022,2.13154368 C9.68500062,2.13154368 9.20830428,2.60971635 9.20830428,3.19733218 L9.20830428,4.6183946 C9.20830428,4.74345822 9.23380423,4.8620938 9.27348189,4.97366854 L7.72648491,4.97366854 C7.76616257,4.86212711 7.79166252,4.74345822 7.79166252,4.6183946 L7.79166252,3.19733218 C7.79166252,2.60971635 7.31496618,2.13154368 6.72916459,2.13154368 L4.44904404,2.13154368 C3.96099226,2.13154368 3.53672356,2.46406969 3.41842106,2.93871194 L3.06424402,4.35977436 C3.01254685,4.56723676 3.03024408,4.77826288 3.09967168,4.97366854 L2.12499585,4.97366854 L2.12499585,1.77630305 Z M13.1841715,4.83724761 C13.1168689,4.92394284 13.0148691,4.97366854 12.9050998,4.97366854 L10.2708022,4.97366854 C10.0753026,4.97366854 9.91662516,4.81449969 9.91662516,4.6183946 L9.91662516,3.19733218 C9.91662516,3.00122709 10.0753026,2.84205824 10.2708022,2.84205824 L12.5509228,2.84205824 C12.7138502,2.84205824 12.8547972,2.95290025 12.8944748,3.11133637 L13.2486519,4.53239879 C13.2755463,4.63901095 13.2521714,4.75055238 13.1841715,4.83724761 Z M7.08261117,3.19663275 L7.08261117,4.61769518 C7.08261117,4.81380026 6.92393374,4.97296911 6.72843412,4.97296911 L4.09413653,4.97296911 C3.98433401,4.97296911 3.88233421,4.92324342 3.81506481,4.83654819 C3.74779541,4.74985295 3.72368999,4.63831153 3.75061767,4.53173268 L4.10479472,3.11067025 C4.14516964,2.95293355 4.28611663,2.84209155 4.44834678,2.84139213 L6.72846733,2.84139213 C6.92393374,2.84139213 7.08261117,3.00052767 7.08261117,3.19663275 Z M16.2916459,9.94733707 L0.708320882,9.94733707 L0.708320882,9.23682251 L16.2916459,9.23682251 L16.2916459,9.94733707 Z M16.2916791,8.52630795 L0.708320882,8.52630795 L0.708320882,6.7500049 C0.708320882,6.16238907 1.18501722,5.6842164 1.77081881,5.6842164 L4.094867,5.6842164 L6.72916459,5.6842164 L10.2708354,5.6842164 L12.905133,5.6842164 L15.2291812,5.6842164 C15.8149828,5.6842164 16.2916791,6.16238907 16.2916791,6.7500049 L16.2916791,8.52630795 Z" id="Shape"></path>
            </g>
        </g>
    </g>
</svg>