<?xml version="1.0" encoding="UTF-8"?>
<svg width="27px" height="31px" viewBox="0 0 27 31" version="1.1" xmlns="http://www.w3.org/2000/svg" xmlns:xlink="http://www.w3.org/1999/xlink">
    <!-- Generator: Sketch 52 (66869) - http://www.bohemiancoding.com/sketch -->
    <title>avatar</title>
    <desc>Created with Sketch.</desc>
    <g id="Page-1" stroke="none" stroke-width="1" fill="none" fill-rule="evenodd">
        <g id="index" transform="translate(-1084.000000, -781.000000)" fill="#FFFFFF" fill-rule="nonzero">
            <g id="avatar" transform="translate(1084.000000, 781.000000)">
                <path d="M12.8892282,17 C12.9227954,17 12.9563626,17 12.9966433,17 C13.0100702,17 13.0234971,17 13.0369239,17 C13.0570643,17 13.0839181,17 13.1040584,17 C15.0710978,16.9673328 16.6621843,16.2943889 17.8370373,15.0073021 C20.4217137,12.1717909 19.9920532,7.31091468 19.945059,6.84704074 C19.7772229,3.36471945 18.0854347,1.69869331 16.6890381,0.92121445 C15.6484541,0.339738663 14.4333205,0.0261337433 13.0772046,0 L13.0302105,0 C13.0234971,0 13.0100702,0 13.0033567,0 L12.9630761,0 C12.2178836,0 10.7543526,0.117601845 9.35124254,0.895080707 C7.94141905,1.67255957 6.22277709,3.3385857 6.05494096,6.84704074 C6.00794684,7.31091468 5.57828635,12.1717909 8.16296274,15.0073021 C9.33110221,16.2943889 10.9221887,16.9673328 12.8892282,17 Z M7.84743082,7.01037663 C7.84743082,6.99077633 7.85414427,6.97117602 7.85414427,6.95810915 C8.07568796,2.27363566 11.4928316,1.77056111 12.9563626,1.77056111 L12.9832164,1.77056111 C12.9966433,1.77056111 13.0167836,1.77056111 13.0369239,1.77056111 C14.8495541,1.80976172 17.9310255,2.52843966 18.1391423,6.95810915 C18.1391423,6.97770945 18.1391423,6.99730976 18.1458557,7.01037663 C18.1525692,7.05611068 18.6225103,11.498847 16.4876348,13.8378171 C15.6417407,14.765565 14.5138819,15.2229055 13.0302105,15.2359723 C13.0167836,15.2359723 13.0100702,15.2359723 12.9966433,15.2359723 C12.9832164,15.2359723 12.9765029,15.2359723 12.9630761,15.2359723 C11.4861181,15.2229055 10.3515459,14.765565 9.51236523,13.8378171 C7.3842031,11.5119139 7.84071738,7.04957725 7.84743082,7.01037663 Z" id="Shape"></path>
                <path d="M26.9981591,24.7842011 C26.9981591,24.7779415 26.9981591,24.7716819 26.9981591,24.7654223 C26.9981591,24.7153453 26.9915859,24.6652684 26.9915859,24.6089319 C26.9521463,23.3695278 26.866694,20.4713255 24.0139,19.5449023 C23.9941803,19.5386427 23.9678872,19.5323831 23.9481675,19.5261235 C20.9836282,18.8062676 18.5186565,17.1787674 18.4923634,17.1599886 C18.0913947,16.8908251 17.539241,16.9847193 17.2565909,17.3665559 C16.9739409,17.7483925 17.0725397,18.2742003 17.4735085,18.5433638 C17.5852538,18.6184792 20.2014105,20.3523928 23.4748929,21.1536237 C25.006462,21.6731719 25.1773667,23.2318163 25.2233795,24.6590088 C25.2233795,24.7153453 25.2233795,24.7654223 25.2299528,24.8154992 C25.236526,25.3788646 25.1970865,26.2489513 25.0919143,26.7497206 C24.0270466,27.3256053 19.8530278,29.3161632 13.5032607,29.3161632 C7.17978662,29.3161632 2.97947483,27.3193457 1.9080338,26.743461 C1.80286167,26.2426917 1.75684887,25.372605 1.76999538,24.8092396 C1.76999538,24.7591626 1.77656864,24.7090857 1.77656864,24.6527492 C1.82258145,23.2255567 1.99348615,21.6669122 3.52505524,21.1473641 C6.79853766,20.3461332 9.4146943,18.6059599 9.52643968,18.5371041 C9.92740841,18.2679406 10.0260073,17.7421329 9.74335719,17.3602963 C9.4607071,16.9784597 8.90855344,16.8845655 8.50758471,17.153729 C8.48129168,17.1725078 6.02946649,18.800008 3.05178067,19.5198639 C3.02548764,19.5261235 3.00576786,19.5323831 2.98604809,19.5386427 C0.133254172,20.4713255 0.0478018193,23.3695278 0.00836227207,24.6026722 C0.00836227207,24.6590088 0.00836227207,24.7090857 0.00178901419,24.7591626 C0.00178901419,24.7654223 0.00178901419,24.7716819 0.00178901419,24.7779415 C-0.00478424368,25.1034415 -0.0113575016,26.7747591 0.337025166,27.6135476 C0.402757745,27.7762977 0.521076387,27.9140092 0.678834576,28.0079035 C0.876032312,28.1330958 5.60220473,31 13.509834,31 C21.4174632,31 26.1436356,28.1268362 26.3408333,28.0079035 C26.4920183,27.9140092 26.6169102,27.7762977 26.6826427,27.6135476 C27.0113056,26.7810187 27.0047324,25.1097012 26.9981591,24.7842011 Z" id="Shape"></path>
            </g>
        </g>
    </g>
</svg>