<?xml version="1.0" encoding="UTF-8"?>
<svg width="18px" height="18px" viewBox="0 0 18 18" version="1.1" xmlns="http://www.w3.org/2000/svg" xmlns:xlink="http://www.w3.org/1999/xlink">
    <!-- Generator: Sketch 52 (66869) - http://www.bohemiancoding.com/sketch -->
    <title>startup</title>
    <desc>Created with Sketch.</desc>
    <g id="Page-1" stroke="none" stroke-width="1" fill="none" fill-rule="evenodd">
        <g id="index" transform="translate(-1471.000000, -882.000000)" fill="#FFFFFF">
            <g id="empreendimentos" transform="translate(4.000000, 766.000000)">
                <g id="startup" transform="translate(1467.000000, 116.000000)">
                    <path d="M9.85375,9.14664333 C9.65825,8.95111889 9.34175,8.95111889 9.14625,9.14664333 C8.95125,9.34166771 8.95125,9.65820728 9.14625,9.85373172 C9.34175,10.0487561 9.65825,10.0487561 9.85375,9.85373172 C10.04875,9.65820728 10.04875,9.34166771 9.85375,9.14664333 Z" id="Path"></path>
                    <path d="M13.5602829,4.43970745 C12.9739935,3.85344585 12.0248888,3.85341585 11.4385694,4.43970745 C10.8538102,5.02446882 10.8537802,5.97621753 11.4386594,6.56145898 C12.0236286,7.14607032 12.9753737,7.14631036 13.5602829,6.56139897 C14.1465123,5.97516737 14.1466324,5.02602907 13.5602829,4.43970745 Z M13.1359582,6.13704266 C12.7851147,6.48791748 12.2140076,6.48791748 11.8629841,6.13710267 C11.5120806,5.78598781 11.5120506,5.21487857 11.8629241,4.86403375 C12.2146677,4.51228879 12.7841546,4.51222879 13.1359582,4.86403375 C13.4877019,5.21574871 13.4877619,5.7852677 13.1359582,6.13704266 Z" id="Shape" fill-rule="nonzero"></path>
                    <path d="M17.8944004,0.105621314 C17.8235798,0.0348368474 17.7269406,-0.00353028052 17.6264792,0.000255949212 C17.5449489,0.003176755 15.603692,0.0812091468 13.2960718,0.896835149 C11.4469466,1.54972539 9.90566038,2.48449142 8.7150156,3.67517052 C8.44821222,3.94197351 8.18858466,4.22489502 7.94017157,4.51881463 C6.76290483,3.82582641 5.81951924,4.04311994 5.2231331,4.36228107 C3.84995572,5.09717023 3,7.09254936 3,8.51977767 C3.00010818,8.6656016 3.0879849,8.79710998 3.22270275,8.85289377 C3.26730821,8.8713922 3.31418541,8.88037098 3.36062989,8.88037098 C3.45449247,8.88037098 3.54669631,8.84369864 3.61567791,8.7747532 C4.33985851,8.05057366 5.23308549,8.09586418 5.52487802,8.13423131 L5.65115798,8.26051108 C5.40263671,8.85188411 5.20243501,9.43993967 5.0556012,10.0118767 C5.00259391,10.2188573 5.02047937,10.4378817 5.09926912,10.6382273 C4.75208938,10.7982225 4.41713376,11.0331491 4.12548547,11.324797 C3.19728089,12.2530362 3.00879849,14.5151823 3.00122602,14.611028 C2.99293236,14.7162131 3.03108319,14.8197755 3.10569005,14.8943822 C3.17358987,14.9622459 3.26543312,15 3.36062989,15 C3.37007745,15 3.37956107,14.9996394 3.38904469,14.9988822 C3.48489053,14.9913458 5.747112,14.8028636 6.67531658,13.8746604 C6.9668567,13.5831207 7.20174752,13.2482017 7.36174301,12.9010945 C7.5738443,12.9844998 7.7921478,12.9947767 7.98845509,12.9444739 C8.56014055,12.7976764 9.14812485,12.5975471 9.73957086,12.3489901 L9.86585082,12.4752699 C9.90418194,12.7670981 9.94947253,13.6603237 9.22532799,14.3844312 C9.12223422,14.4875609 9.09136738,14.642652 9.14718731,14.7773697 C9.20297118,14.9121234 9.33444369,14.9999639 9.48030389,14.9999639 C10.9075343,14.9999639 12.9028803,14.1500095 13.6377705,12.7768341 C13.9569321,12.1805209 14.1742259,11.2371367 13.4812367,10.0598356 C13.7750125,9.81153108 14.0579705,9.55190389 14.324882,9.28499273 C15.5155629,8.09431363 16.4502942,6.55302965 17.1031854,4.70405141 C17.9188487,2.39632636 17.9968451,0.455036229 17.9997659,0.373542141 C18.0033719,0.273477498 17.965185,0.176441839 17.8944004,0.105621314 Z M3.80621569,7.74417753 C4.03021658,6.66012586 4.68083603,5.4705646 5.56356974,4.99811525 C6.15346519,4.68245187 6.79824302,4.71339078 7.48380402,5.08866023 C6.89975019,5.85679609 6.39199801,6.68435773 5.96876903,7.55825562 C5.96339618,7.55493816 5.89848929,7.47333589 5.77790671,7.44614716 C5.72832506,7.4349327 4.77422984,7.22971905 3.80621569,7.74417753 Z M6.16536479,13.3646733 C5.66954827,13.8604891 4.50645286,14.1219914 3.77131021,14.228763 C3.8781181,13.4935854 4.13965681,12.3305277 4.63543727,11.834748 C4.91309452,11.5570912 5.2350327,11.3465768 5.5586296,11.2280137 L6.77209997,12.4414823 C6.65353672,12.7650787 6.4430581,13.0870164 6.16536479,13.3646733 Z M7.80931207,12.2458604 C7.70495622,12.2725804 7.58408516,12.2333478 7.49422518,12.1436322 C7.02772494,11.6771327 6.8452284,11.4946364 6.7879661,11.4374102 C6.68296117,11.3324055 6.42546112,11.0749058 5.85669646,10.5061059 C5.76676436,10.4159936 5.72753175,10.2951588 5.75417964,10.1909834 C5.86967784,9.74117932 6.0207306,9.27969201 6.2044171,8.81376939 L9.1863478,11.7956958 C8.72035239,11.979418 8.25893652,12.1304345 7.80931207,12.2458604 Z M13.0020075,12.4365422 C12.5295575,13.3192385 11.3400305,13.9698931 10.2560133,14.1938576 C10.6016425,13.5434555 10.677836,12.7154972 10.5515561,12.2134431 C10.5222398,12.0968272 10.4461545,12.0381947 10.4418995,12.0313074 C11.3157265,11.6080791 12.1432533,11.1003276 12.9114624,10.5162746 C13.2867324,11.2019068 13.3176353,11.8467558 13.0020075,12.4365422 Z M13.8150024,8.77504167 C13.4900713,9.09993624 13.1401871,9.41383272 12.7750497,9.70796868 C11.8972922,10.4147316 10.9311892,11.0133886 9.90046783,11.4899487 L6.51016461,8.09972253 C6.98672542,7.0689305 7.5853833,6.10282891 8.29207509,5.22518086 C8.5864639,4.85979166 8.90032477,4.50987191 9.22511164,4.18512158 C10.2933709,3.11682785 11.6720653,2.26662095 13.3240178,1.65462198 L16.3455056,4.67610543 C15.7335779,6.32801943 14.8833698,7.70671188 13.8150024,8.77504167 Z M16.6049529,3.91557808 L14.0845463,1.3951751 C15.4577236,0.968665336 16.6523349,0.80895856 17.2486129,0.751552105 C17.1911703,1.34793738 17.0314272,2.54254695 16.6049529,3.91557808 Z" id="Shape" fill-rule="nonzero"></path>
                    <path d="M8.87864995,15.1212583 C8.71680155,14.9595254 8.45449697,14.9596082 8.29277285,15.1213411 L7.1212672,16.2930244 C6.95954308,16.4547987 6.95958451,16.7170503 7.12135005,16.8787418 C7.28319845,17.0404332 7.54550303,17.0404332 7.70722715,16.8786589 L8.8787328,15.7069756 C9.04045692,15.5452013 9.04041549,15.2829497 8.87864995,15.1212583 Z" id="Path"></path>
                    <path d="M2.87876246,9.12136621 C2.71707099,8.95955841 2.45486078,8.95955841 2.29304507,9.12128336 L1.12136179,10.2927951 C0.959587496,10.45452 0.959546079,10.716826 1.12123754,10.8786338 C1.28288759,11.0403587 1.5450978,11.0405244 1.70695493,10.8787166 L2.87863821,9.70720492 C3.0404125,9.54547996 3.04045392,9.28317402 2.87876246,9.12136621 Z" id="Path"></path>
                    <path d="M4.89986494,15.1001559 C4.76641422,14.9666204 4.54987734,14.9666204 4.41632404,15.1001217 L2.10016925,17.4162183 C1.96661595,17.5497538 1.96661595,17.766283 2.10013506,17.8998185 C2.23358578,18.0333539 2.45012266,18.0334223 2.58367596,17.8998527 L4.89983075,15.583756 C5.03338405,15.4502206 5.03338405,15.2336913 4.89986494,15.1001559 Z" id="Path"></path>
                    <path d="M2.89986494,15.1001559 C2.76638002,14.9666204 2.54984314,14.9666204 2.41632404,15.1001217 L0.10016925,17.4162183 C-0.0333840508,17.5497538 -0.0333840508,17.766283 0.100135058,17.8998185 C0.233585783,18.0333539 0.450122663,18.0334223 0.583675964,17.8998527 L2.89983075,15.583756 C3.03338405,15.4502206 3.03338405,15.2336913 2.89986494,15.1001559 Z" id="Path"></path>
                    <path d="M2.89981933,13.1001091 C2.7663192,12.9666246 2.54975764,12.9666246 2.41622331,13.1001433 L0.100146472,15.4162915 C-0.0333878561,15.5498444 -0.0333878561,15.7663123 0.100180668,15.8998652 C0.233714996,16.033384 0.450242363,16.033384 0.583776691,15.899831 L2.89985353,13.5836828 C3.03338786,13.4501299 3.03338786,13.233662 2.89981933,13.1001091 Z" id="Path"></path>
                    <path d="M10.9142148,7.08578521 C10.7998052,6.97140493 10.6143949,6.97140493 10.4999561,7.08578521 L10.0857852,7.49995606 C9.97140493,7.61433635 9.97140493,7.79980522 10.0857852,7.91421479 C10.2001948,8.02859507 10.3856344,8.02859507 10.5000439,7.91421479 L10.9142148,7.50004394 C11.0285951,7.38566365 11.0285951,7.20019478 10.9142148,7.08578521 Z" id="Path"></path>
                </g>
            </g>
        </g>
    </g>
</svg>