<?xml version="1.0" encoding="UTF-8"?>
<svg width="15px" height="15px" viewBox="0 0 15 15" version="1.1" xmlns="http://www.w3.org/2000/svg" xmlns:xlink="http://www.w3.org/1999/xlink">
    <!-- Generator: Sketch 52 (66869) - http://www.bohemiancoding.com/sketch -->
    <title>noun_837197_cc</title>
    <desc>Created with Sketch.</desc>
    <g id="Page-1" stroke="none" stroke-width="1" fill="none" fill-rule="evenodd">
        <g id="Empreendimentos" transform="translate(-1179.000000, -363.000000)" fill="#FFFFFF" fill-rule="nonzero">
            <g id="noun_837197_cc" transform="translate(1179.000000, 363.000000)">
                <path d="M14.6052632,0 L0.394736842,0 C0.177631579,0 0,0.177631579 0,0.394736842 L0,14.5855263 C0,14.8026316 0.177631579,14.9802632 0.394736842,14.9802632 L9,14.9802632 C9.21710526,14.9802632 9.39473684,14.8026316 9.39473684,14.5855263 C9.39473684,14.3684211 9.21710526,14.1907895 9,14.1907895 L7.24342105,14.1907895 L7.24342105,13.7368421 C7.24342105,13.6184211 7.14473684,13.5197368 7.02631579,13.5197368 C6.90789474,13.5197368 6.80921053,13.6184211 6.80921053,13.7368421 L6.80921053,14.1907895 L0.789473684,14.1907895 L0.789473684,7.71710526 L6.76973684,7.71710526 L6.76973684,11.1907895 C6.76973684,11.3092105 6.86842105,11.4078947 6.98684211,11.4078947 C7.10526316,11.4078947 7.20394737,11.3092105 7.20394737,11.1907895 L7.20394737,7.71710526 L7.5,7.71710526 C7.61842105,7.71710526 7.71710526,7.61842105 7.71710526,7.5 C7.71710526,7.44078947 7.69736842,7.40131579 7.65789474,7.36184211 L10.5,4.51973684 L10.5,5.60526316 C10.5,5.60526316 10.4802632,5.625 10.4802632,5.625 L8.76315789,7.34210526 C8.72368421,7.38157895 8.70394737,7.44078947 8.70394737,7.5 C8.70394737,7.55921053 8.72368421,7.61842105 8.76315789,7.65789474 C8.80263158,7.69736842 8.86184211,7.71710526 8.92105263,7.71710526 C8.98026316,7.71710526 9.03947368,7.69736842 9.07894737,7.65789474 L9.23684211,7.5 L10.5197368,6.21710526 L10.5197368,6.33552632 L10.5197368,7.22368421 L10.4605263,7.30263158 L10.0657895,7.30263158 C9.94736842,7.30263158 9.84868421,7.40131579 9.84868421,7.5 C9.84868421,7.5 9.84868421,7.51973684 9.84868421,7.51973684 C9.84868421,7.63815789 9.94736842,7.73684211 10.0657895,7.73684211 L10.5197368,7.73684211 L10.5197368,8.70394737 L10.5197368,9.88815789 L10.5197368,11.0526316 C10.5197368,11.1710526 10.6184211,11.2697368 10.7368421,11.2697368 C10.8552632,11.2697368 10.9539474,11.1710526 10.9539474,11.0526316 L10.9539474,10.1052632 L14.2105263,10.1052632 L14.2105263,14.2105263 L12.4934211,14.2105263 C12.2763158,14.2105263 12.0986842,14.3881579 12.0986842,14.6052632 C12.0986842,14.8223684 12.2763158,15 12.4934211,15 L14.5657895,15 C14.5657895,15 14.5855263,15 14.5855263,15 C14.5855263,15 14.6052632,15 14.6052632,15 C14.8223684,15 15,14.8223684 15,14.6052632 L15,0.394736842 C15,0.177631579 14.8223684,0 14.6052632,0 Z M0.789473684,4.22368421 L4.22368421,0.789473684 L5.26973684,0.789473684 L0.789473684,5.26973684 L0.789473684,4.22368421 Z M0.789473684,2.56578947 L2.54605263,0.809210526 L3.59210526,0.809210526 L0.789473684,3.59210526 L0.789473684,2.56578947 Z M0.789473684,0.888157895 L0.888157895,0.789473684 L1.93421053,0.789473684 L0.789473684,1.93421053 L0.789473684,0.888157895 Z M5.90131579,0.789473684 L6.94736842,0.789473684 L0.789473684,6.92763158 L0.789473684,5.88157895 L5.90131579,0.789473684 Z M7.55921053,0.789473684 L8.60526316,0.789473684 L2.13157895,7.28289474 L1.08552632,7.28289474 L7.55921053,0.789473684 Z M9.23684211,0.789473684 L10.2828947,0.789473684 L3.78947368,7.28289474 L2.74342105,7.28289474 L9.23684211,0.789473684 Z M10.5197368,1.18421053 L10.5197368,2.23026316 L5.46710526,7.28289474 L4.42105263,7.28289474 L10.5197368,1.18421053 Z M10.9539474,7.73684211 L11.0526316,7.73684211 L12.6710526,7.73684211 C12.7894737,7.73684211 12.8881579,7.63815789 12.8881579,7.51973684 C12.8881579,7.40131579 12.7894737,7.30263158 12.6710526,7.30263158 L11.0526316,7.30263158 L10.9736842,7.30263158 L10.9736842,6.57236842 L11.7236842,6.57236842 C11.8421053,6.57236842 11.9407895,6.47368421 11.9407895,6.35526316 C11.9407895,6.23684211 11.8421053,6.13815789 11.7236842,6.13815789 L10.9736842,6.13815789 L10.9736842,0.809210526 L14.2105263,0.809210526 L14.2105263,8.48684211 L10.9539474,8.48684211 L10.9539474,7.73684211 Z M7.125,7.28289474 L6.98684211,7.28289474 L6.07894737,7.28289474 L10.5,2.86184211 L10.5,3.90789474 L7.125,7.28289474 Z M10.9539474,9.65131579 L10.9539474,8.92105263 L14.2105263,8.92105263 L14.2105263,9.65131579 L10.9539474,9.65131579 Z" id="Shape"></path>
            </g>
        </g>
    </g>
</svg>