<?xml version="1.0" encoding="UTF-8"?>
<svg width="31px" height="31px" viewBox="0 0 31 31" version="1.1" xmlns="http://www.w3.org/2000/svg" xmlns:xlink="http://www.w3.org/1999/xlink">
    <!-- Generator: Sketch 52 (66869) - http://www.bohemiancoding.com/sketch -->
    <title>phone-call</title>
    <desc>Created with Sketch.</desc>
    <g id="Page-1" stroke="none" stroke-width="1" fill="none" fill-rule="evenodd">
        <g id="index" transform="translate(-514.000000, -781.000000)" fill="#FFFFFF" fill-rule="nonzero">
            <g id="phone-call" transform="translate(514.000000, 781.000000)">
                <path d="M24.4125848,19.2869624 C23.7796129,18.6308244 23.0161312,18.2800179 22.2069712,18.2800179 C21.4043367,18.2800179 20.6343296,18.624328 19.9752557,19.2804659 L17.9132028,21.3268369 C17.7435402,21.2358871 17.5738777,21.1514337 17.4107406,21.0669803 C17.1758231,20.9500448 16.9539567,20.8396057 16.7647177,20.7226703 C14.8331744,19.5013441 13.0778192,17.9097222 11.3942444,15.8503584 C10.5785589,14.8239247 10.0304182,13.9599014 9.63236373,13.0828853 C10.1674534,12.5956541 10.6633902,12.0889337 11.146276,11.6017025 C11.3289895,11.4198029 11.5117031,11.2314068 11.6944166,11.0495072 C13.0647683,9.68525986 13.0647683,7.91823477 11.6944166,6.55398746 L9.91295954,4.78046595 C9.71066954,4.57907706 9.50185405,4.37119176 9.30608953,4.16330645 C8.9145605,3.76052867 8.50345501,3.34475806 8.07929856,2.95497312 C7.44632662,2.3313172 6.68937048,2 5.89326144,2 C5.09715241,2 4.3271453,2.3313172 3.67459691,2.95497312 C3.66807143,2.96146953 3.66807143,2.96146953 3.66154594,2.96796595 L1.44288141,5.19623656 C0.60761947,6.02777778 0.131259144,7.04121864 0.0268514011,8.21706989 C-0.129760213,10.1140233 0.431431404,11.8810484 0.862113343,13.0374104 C1.91924174,15.8763441 3.49840885,18.5073925 5.85410854,21.3268369 C8.7122705,24.7244624 12.1512005,27.4074821 16.0795418,29.2979391 C17.5804031,30.0060484 19.5837267,30.844086 21.8219677,30.9870072 C21.9590029,30.9935036 22.1025635,31 22.2330732,31 C23.74046,31 25.0064038,30.4607975 25.9982774,29.3888889 C26.0048029,29.3758961 26.0178538,29.3693996 26.0243793,29.3564068 C26.3637045,28.9471326 26.7552335,28.5768369 27.166339,28.1805556 C27.4469348,27.9142025 27.7340561,27.6348566 28.0146519,27.3425179 C28.6606748,26.6733871 29,25.8938172 29,25.0947581 C29,24.2892025 28.6541494,23.516129 27.9950755,22.8664875 L24.4125848,19.2869624 Z M26.748708,26.1276882 C26.7421826,26.1276882 26.7421826,26.1341846 26.748708,26.1276882 C26.4942142,26.4005376 26.2331948,26.6474014 25.952599,26.9202509 C25.5284426,27.3230287 25.0977606,27.7452957 24.6931806,28.2195341 C24.0341067,28.921147 23.2575742,29.2524642 22.2395987,29.2524642 C22.1417164,29.2524642 22.0373087,29.2524642 21.9394264,29.2459677 C20.0013577,29.1225358 18.2003241,28.3689516 16.8495489,27.7258065 C13.156125,25.9457885 9.91295954,23.4186828 7.21793468,20.2159498 C4.99274466,17.5459229 3.50493433,15.0772849 2.51958626,12.4267473 C1.91271625,10.8091398 1.6908498,9.54883513 1.78873206,8.35999104 C1.8539869,7.59991039 2.14763367,6.96975806 2.68924884,6.43055556 L4.91443886,4.21527778 C5.23418757,3.91644265 5.57351273,3.75403226 5.90631241,3.75403226 C6.3174179,3.75403226 6.65021758,4.00089606 6.85903306,4.20878136 C6.86555855,4.21527778 6.87208403,4.22177419 6.87860952,4.22827061 C7.27666403,4.59856631 7.6551421,4.98185484 8.05319662,5.39112903 C8.25548662,5.59901434 8.46430211,5.80689964 8.67311759,6.02128136 L10.4545747,7.79480287 C11.146276,8.48342294 11.146276,9.12007168 10.4545747,9.80869176 C10.2653357,9.99708781 10.0826221,10.1854839 9.89338309,10.3673835 C9.34524244,10.9260753 8.82320372,11.4457885 8.25548662,11.952509 C8.24243565,11.9655018 8.22938469,11.9719982 8.2228592,11.984991 C7.66166759,12.5436828 7.76607533,13.0893817 7.88353404,13.4596774 C7.89005952,13.4791667 7.89658501,13.4986559 7.90311049,13.5181452 C8.36641985,14.6355287 9.01896824,15.687948 10.0108418,16.9417563 L10.0173673,16.9482527 C11.8184008,19.1570341 13.7173167,20.8785842 15.811997,22.1973566 C16.0795418,22.3662634 16.3536122,22.5026882 16.6146315,22.6326165 C16.8495489,22.749552 17.0714154,22.859991 17.2606544,22.9769265 C17.2867564,22.9899194 17.3128583,23.0094086 17.3389602,23.0224014 C17.5608267,23.1328405 17.7696422,23.1848118 17.9849831,23.1848118 C18.5265983,23.1848118 18.8659235,22.8469982 18.9768567,22.7365591 L21.2085722,20.5147849 C21.4304387,20.2939068 21.7828148,20.0275538 22.1939203,20.0275538 C22.5985003,20.0275538 22.9313,20.280914 23.13359,20.5017921 C23.1401154,20.5082885 23.1401154,20.5082885 23.1466409,20.5147849 L26.7421826,24.09431 C27.4143074,24.7569444 27.4143074,25.4390681 26.748708,26.1276882 Z" id="Shape"></path>
                <path d="M16.7003855,6.68808933 C18.3517286,6.96543767 19.8518036,7.74705571 21.0493424,8.94469625 C22.2468813,10.1423368 23.0221301,11.6425391 23.3057577,13.2940224 C23.3750889,13.7100449 23.7343506,14 24.1440349,14 C24.1944576,14 24.2385775,13.9936966 24.2890002,13.9873933 C24.75541,13.9117528 25.064249,13.4705168 24.988615,13.0040673 C24.6482618,11.0058986 23.7028364,9.18422435 22.259487,7.74075233 C20.8161375,6.29728031 18.9946179,5.35177463 16.9966188,5.01139258 C16.530209,4.93575212 16.0953133,5.24461731 16.0133764,5.70476342 C15.9314395,6.16490952 16.2339757,6.61244888 16.7003855,6.68808933 Z" id="Shape"></path>
                <path d="M30.9862599,13.9581748 C30.3920985,10.4720674 28.7498099,7.29984317 26.2262932,4.77542054 C23.7027765,2.25099792 20.5316908,0.608119706 17.0468344,0.0137450678 C16.5594886,-0.0730736996 16.0988466,0.260844637 16.012059,0.748365408 C15.9319474,1.24256455 16.2590699,1.70337185 16.7530917,1.79019062 C19.8640938,2.31778159 22.701381,3.79370063 24.9578589,6.04431022 C27.2143368,8.30159817 28.6830502,11.139904 29.2104518,14.2520229 C29.2838875,14.6927951 29.6644178,15 30.0983558,15 C30.1517636,15 30.1984954,14.9933216 30.2519032,14.9866433 C30.739249,14.9131812 31.0730475,14.4456956 30.9862599,13.9581748 Z" id="Shape"></path>
            </g>
        </g>
    </g>
</svg>