<?xml version="1.0" encoding="UTF-8"?>
<svg width="37px" height="28px" viewBox="0 0 37 28" version="1.1" xmlns="http://www.w3.org/2000/svg" xmlns:xlink="http://www.w3.org/1999/xlink">
    <!-- Generator: Sketch 52 (66869) - http://www.bohemiancoding.com/sketch -->
    <title>envelope</title>
    <desc>Created with Sketch.</desc>
    <g id="Page-1" stroke="none" stroke-width="1" fill="none" fill-rule="evenodd">
        <g id="index" transform="translate(-805.000000, -782.000000)" fill="#FFFFFF">
            <g id="envelope" transform="translate(805.000000, 782.000000)">
                <path d="M32.4831178,0 L4.52451629,0 C2.02875942,0 0,2.01740076 0,4.49918434 L0,23.5008157 C0,25.9825992 2.02875942,28 4.52451629,28 L32.4754621,28 C34.971219,28 36.9999784,25.9825992 36.9999784,23.5008157 L36.9999784,4.50679717 C37.0076341,2.02501359 34.9788747,0 32.4831178,0 Z M34.9405962,23.5008157 C34.9405962,24.8482871 33.838176,25.9445351 32.4831178,25.9445351 L4.52451629,25.9445351 C3.16945811,25.9445351 2.0670379,24.8482871 2.0670379,23.5008157 L2.0670379,4.50679717 C2.0670379,3.15932572 3.16945811,2.06307776 4.52451629,2.06307776 L32.4754621,2.06307776 C33.8305203,2.06307776 34.9329405,3.15932572 34.9329405,4.50679717 L34.9329405,23.5008157 L34.9405962,23.5008157 Z" id="Shape" fill-rule="nonzero"></path>
                <path d="M23.7485692,13.7608719 L32.6467907,5.78037507 C33.0608365,5.40393654 33.0984771,4.76399104 32.7220718,4.34237988 C32.3456665,3.9282975 31.7057774,3.89065365 31.2842035,4.26709218 L19.0133905,15.2816836 L16.6194527,13.1435128 C16.6119246,13.135984 16.6043965,13.1284552 16.6043965,13.1209264 C16.5516997,13.068225 16.499003,13.0230524 16.4387781,12.9778798 L6.69740877,4.25956341 C6.27583483,3.88312488 5.63594581,3.92076873 5.2595405,4.34237988 C4.88313519,4.76399104 4.92077572,5.40393654 5.34234967,5.78037507 L14.3459646,13.8286309 L5.3799902,22.2232101 C4.97347246,22.6071774 4.95088815,23.2471229 5.33482156,23.6612053 C5.53808043,23.8720109 5.80909225,23.9849425 6.08010407,23.9849425 C6.32853157,23.9849425 6.57695908,23.8945972 6.77268984,23.7139067 L15.8741702,15.1988671 L18.343389,17.4047969 C18.5391198,17.5779587 18.7800192,17.6607751 19.0209186,17.6607751 C19.261818,17.6607751 19.5102455,17.5704299 19.6984481,17.3972682 L22.2354199,15.1235794 L31.2842035,23.7214355 C31.4799342,23.9096548 31.7358899,24 31.9843174,24 C32.2553292,24 32.5188129,23.8945972 32.7220718,23.6837916 C33.1060052,23.277238 33.090949,22.6297637 32.6844312,22.2457964 L23.7485692,13.7608719 Z" id="Path"></path>
            </g>
        </g>
    </g>
</svg>