<?xml version="1.0" encoding="UTF-8"?>
<svg width="16px" height="16px" viewBox="0 0 16 16" version="1.1" xmlns="http://www.w3.org/2000/svg" xmlns:xlink="http://www.w3.org/1999/xlink">
    <!-- Generator: Sketch 52 (66869) - http://www.bohemiancoding.com/sketch -->
    <title>teste</title>
    <desc>Created with Sketch.</desc>
    <g id="Page-1" stroke="none" stroke-width="1" fill="none" fill-rule="evenodd">
        <g id="index" transform="translate(-1163.000000, -1293.000000)" fill="#FFFFFF">
            <g id="empreendimentos" transform="translate(4.000000, 766.000000)">
                <g id="teste" transform="translate(1159.000000, 527.000000)">
                    <path d="M15.32076,0.268680797 L12.2814892,0 C12.1470089,0 12.0125285,0.0268680797 11.9049443,0.134340398 L7.11742931,4.9168742 C5.23468922,4.40638068 3.13679625,4.89000612 1.65749712,6.3677505 C-0.547995736,8.57094864 -0.547995736,12.1444189 1.63060105,14.3476014 C3.83609391,16.5507995 7.41328601,16.5507995 9.59186717,14.3476014 C11.0711507,12.869857 11.5552955,10.7741312 11.0442546,8.86648191 L11.8511365,8.06043952 C11.9318247,7.97983528 11.9856168,7.87236296 11.9856168,7.76489064 L12.066305,6.3677505 L13.4917964,6.28714626 C13.733861,6.26027818 13.9221334,6.07220162 13.9221334,5.8303889 L13.9759256,4.43324876 L15.589705,4.21830412 C15.6972893,4.19143604 15.7779775,4.16456796 15.8586656,4.08396372 C15.9662499,3.97649141 16.020042,3.86901909 15.993146,3.70781061 L15.7510814,0.698570072 C15.7241853,0.483625434 15.5359129,0.295548877 15.3207444,0.268680797 L15.32076,0.268680797 Z M14.9980072,3.33165749 L13.4380355,3.54660213 C13.222867,3.57347021 13.0345946,3.76154677 13.0345946,4.00335949 L13.0076985,5.34676347 L11.6091032,5.42736771 C11.3670386,5.45423579 11.1787662,5.64231235 11.1787662,5.88412506 L11.0711819,7.52309354 L9.99533939,8.59781672 C10.1298197,8.94710176 10.2105079,9.2963868 10.2643,9.64567183 C10.4794685,11.0696801 10.0491315,12.5743081 8.9463929,13.6490313 C7.11744494,15.4760763 4.13196624,15.4760763 2.3030339,13.6490313 C0.47410157,11.8219863 0.474085942,8.83961383 2.3030339,7.01258441 C3.40577252,5.91099314 4.88507165,5.48110387 6.31056303,5.69604851 C6.66021186,5.74978467 7.00986068,5.8303889 7.35950951,5.9647293 L8.05880717,5.26615923 L12.4159851,0.967250869 L14.8366465,1.18219551 L14.9980229,3.33165749 L14.9980072,3.33165749 Z" id="Shape" fill-rule="nonzero"></path>
                    <path d="M12.3145183,2.12162124 L8.12096736,6.31081298 C7.95967755,6.47297463 7.95967755,6.71621711 8.12096736,6.87837876 C8.28225718,7.04054041 8.52419191,7.04054041 8.68548173,6.87837876 L12.8790326,2.68918702 C13.0403225,2.52702537 13.0403225,2.28378289 12.8790326,2.12162124 C12.7177428,1.95945959 12.4758081,1.95945959 12.3145183,2.12162124 Z" id="Path"></path>
                    <path d="M3.5874102,9.5874102 C2.8041966,10.3706238 2.8041966,11.6293762 3.5874102,12.4125898 C4.3706238,13.1958034 5.6293762,13.1958034 6.4125898,12.4125898 C7.1958034,11.6293762 7.1958034,10.3706238 6.4125898,9.5874102 C5.65734811,8.8041966 4.3706238,8.8041966 3.5874102,9.5874102 Z M5.74126386,11.7412639 C5.34965706,12.1328707 4.70630303,12.1328707 4.31469623,11.7412639 C3.92308943,11.3496571 3.92308943,10.706303 4.31469623,10.3146962 C4.70630303,9.92308943 5.34965706,9.92308943 5.74126386,10.3146962 C6.13287066,10.6783311 6.13287066,11.3216851 5.74126386,11.7412639 Z" id="Shape" fill-rule="nonzero"></path>
                </g>
            </g>
        </g>
    </g>
</svg>