<?xml version="1.0" encoding="UTF-8"?>
<svg width="30px" height="30px" viewBox="0 0 30 30" version="1.1" xmlns="http://www.w3.org/2000/svg" xmlns:xlink="http://www.w3.org/1999/xlink">
    <!-- Generator: Sketch 52 (66869) - http://www.bohemiancoding.com/sketch -->
    <title>Group 12</title>
    <desc>Created with Sketch.</desc>
    <g id="Page-1" stroke="none" stroke-width="1" fill="none" fill-rule="evenodd">
        <g id="index" transform="translate(-1342.000000, -781.000000)" fill="#FFFFFF" fill-rule="nonzero">
            <g id="Group-12" transform="translate(1342.000000, 781.000000)">
                <path d="M14.2666463,0.0173493345 C6.27911957,0.394595811 -0.0241615207,6.99289354 6.96273433e-05,14.9248272 C0.00744746943,17.3406969 0.595432551,19.6209646 1.63267035,21.6357679 L0.0401414363,29.3036003 C-0.0460057198,29.7183705 0.331132208,30.0815546 0.74653365,29.9839784 L8.32133519,28.2038601 C10.2674219,29.1654153 12.4532884,29.7208099 14.7666759,29.7558225 C22.9306922,29.8795146 29.7380535,23.4494639 29.9925167,15.354449 C30.2652798,6.67713436 23.0452657,-0.39734915 14.2666463,0.0173493345 Z M23.3050091,23.1167007 C21.0866656,25.3171138 18.1371924,26.528923 15.0000182,26.528923 C13.1630802,26.528923 11.4044052,26.1201078 9.77267246,25.3138852 L8.7177857,24.7926422 L4.0736511,25.8840597 L5.05121518,21.1769449 L4.5315113,20.1674626 C3.68443377,18.5219419 3.25492763,16.742541 3.25492763,14.8787655 C3.25492763,11.7668767 4.47661148,8.84131518 6.694955,6.64083031 C8.89347961,4.46007591 11.8910534,3.2285362 15.0002352,3.2285362 C18.1374094,3.22860795 21.086738,4.44041719 23.3050815,6.64075856 C25.523425,8.84117168 26.7451088,11.7667332 26.7451812,14.8785502 C26.7451088,17.9626729 25.5035338,20.936018 23.3050091,23.1167007 Z" id="Shape"></path>
                <path d="M22.2469569,18.8227018 L19.4571088,17.9614191 C19.0903287,17.8482143 18.6953509,17.960075 18.4280966,18.2528693 L17.7458621,19.0002004 C17.4581888,19.315322 17.0216781,19.4165791 16.6409381,19.2509536 C15.3211966,18.6767154 12.5450307,16.0228237 11.8360569,14.6953551 C11.6315185,14.3124301 11.665342,13.8336991 11.9164832,13.4843024 L12.5121101,12.6558013 C12.7454714,12.3311961 12.7947134,11.895253 12.6403894,11.5200193 L11.4666376,8.66577895 C11.1854928,7.98214422 10.3729649,7.78313969 9.84213745,8.26582837 C9.06350251,8.97388129 8.13964183,10.0498499 8.02733671,11.241861 C7.82932687,13.3434684 8.66762175,15.9927303 11.8376543,19.173816 C15.4998986,22.848866 18.432611,23.3343923 20.3420759,22.8370677 C21.4251223,22.5550263 22.2906427,21.4243221 22.8368887,20.4985216 C23.2092944,19.8673076 22.9152314,19.0290243 22.2469569,18.8227018 Z" id="Shape"></path>
            </g>
        </g>
    </g>
</svg>